<?xml version="1.0"?>
<svg xmlns="http://www.w3.org/2000/svg" xmlns:xlink="http://www.w3.org/1999/xlink" version="1.1" id="Capa_1" x="0px" y="0px" width="512px" height="512px" viewBox="0 0 33.75 33.75" style="enable-background:new 0 0 33.75 33.75;" xml:space="preserve" class=""><g><g>
	<g>
		<path d="M24.535,11.058c0.063,0.038,0.138,0.058,0.209,0.058c0.07,0,0.144-0.019,0.205-0.056c0.129-0.073,0.207-0.21,0.207-0.357    V7.026c0-0.125-0.058-0.244-0.151-0.322c-2.298-1.836-5.188-2.849-8.128-2.849c-0.927,0-1.849,0.099-2.743,0.291    c-0.166,0.036-0.294,0.17-0.321,0.338c-0.025,0.168,0.053,0.336,0.199,0.421L24.535,11.058z" data-original="#000000" class="active-path" data-old_color="#F4F2F2" fill="#F4F4F4"/>
		<path d="M26.453,8.056c-0.114-0.126-0.299-0.167-0.452-0.104c-0.16,0.062-0.267,0.215-0.267,0.385v12.264    c0,0.147,0.08,0.284,0.207,0.358c0.063,0.037,0.135,0.055,0.207,0.055c0.07,0,0.145-0.02,0.207-0.055l3.192-1.848    c0.108-0.062,0.183-0.172,0.201-0.297c0.096-0.637,0.146-1.291,0.146-1.938C29.895,13.596,28.672,10.465,26.453,8.056z" data-original="#000000" class="active-path" data-old_color="#F4F2F2" fill="#F4F4F4"/>
		<path d="M4.872,13.427c0.069,0,0.142-0.017,0.204-0.054l10.652-6.076c0.129-0.073,0.207-0.209,0.207-0.356    c0.002-0.146-0.078-0.283-0.203-0.358l-3.151-1.842c-0.108-0.063-0.238-0.074-0.355-0.029c-3.652,1.396-6.55,4.454-7.746,8.177    c-0.052,0.162,0,0.34,0.133,0.447C4.686,13.395,4.778,13.427,4.872,13.427z" data-original="#000000" class="active-path" data-old_color="#F4F2F2" fill="#F4F4F4"/>
		<path d="M28.708,20.266l-2.769,1.6c-0.019,0.012-0.037,0.023-0.054,0.037l-7.858,4.537c-0.126,0.073-0.207,0.209-0.207,0.357    c0,0.146,0.08,0.283,0.205,0.355L21.195,29c0.063,0.037,0.138,0.056,0.207,0.056c0.054,0,0.104-0.009,0.147-0.026    c3.687-1.42,6.584-4.516,7.757-8.28c0.051-0.163-0.004-0.341-0.136-0.445C29.04,20.193,28.854,20.18,28.708,20.266z" data-original="#000000" class="active-path" data-old_color="#F4F2F2" fill="#F4F4F4"/>
		<path d="M9.214,22.688c-0.129-0.072-0.286-0.074-0.414-0.001s-0.209,0.21-0.209,0.358v3.678c0,0.125,0.06,0.244,0.155,0.322    c2.298,1.836,5.184,2.848,8.128,2.848c0.935,0,1.866-0.1,2.771-0.297c0.168-0.036,0.295-0.17,0.321-0.339    c0.026-0.168-0.054-0.336-0.2-0.421L9.214,22.688z" data-original="#000000" class="active-path" data-old_color="#F4F2F2" fill="#F4F4F4"/>
		<path d="M7.397,12.716l-3.178,1.812c-0.109,0.062-0.184,0.169-0.203,0.294c-0.107,0.675-0.16,1.365-0.16,2.054    c0,3.276,1.223,6.409,3.44,8.817c0.079,0.088,0.189,0.135,0.306,0.135c0.049,0,0.1-0.01,0.149-0.028    c0.156-0.062,0.262-0.215,0.262-0.384v-12.34c0-0.147-0.079-0.284-0.205-0.357C7.681,12.643,7.524,12.642,7.397,12.716z" data-original="#000000" class="active-path" data-old_color="#F4F2F2" fill="#F4F4F4"/>
		<path d="M16.875,0C7.569,0,0,7.569,0,16.875C0,26.18,7.569,33.75,16.875,33.75c9.305,0,16.875-7.57,16.875-16.875    C33.75,7.569,26.179,0,16.875,0z M16.875,31.486c-8.06,0-14.613-6.556-14.613-14.611c0-8.058,6.555-14.612,14.613-14.612    c8.057,0,14.609,6.556,14.609,14.612C31.486,24.932,24.931,31.486,16.875,31.486z" data-original="#000000" class="active-path" data-old_color="#F4F2F2" fill="#F4F4F4"/>
	</g>
</g></g> </svg>
